<?xml version="1.0" encoding="utf-8"?>
<!-- Generator: Adobe Illustrator 16.0.5, SVG Export Plug-In . SVG Version: 6.00 Build 0)  -->
<!DOCTYPE svg PUBLIC "-//W3C//DTD SVG 1.1//EN" "http://www.w3.org/Graphics/SVG/1.1/DTD/svg11.dtd">
<svg version="1.1" id="Layer_1" xmlns="http://www.w3.org/2000/svg" xmlns:xlink="http://www.w3.org/1999/xlink" x="0px" y="0px"
	 width="54px" height="54px" viewBox="0 0 54 54" enable-background="new 0 0 54 54" xml:space="preserve">
<g id="interface_-_cross_cancel">
	<g>
		<path fill-rule="evenodd" clip-rule="evenodd" d="M27.934,27l12.372-12.372c0.258-0.258,0.258-0.676,0-0.935
			c-0.258-0.258-0.676-0.258-0.934,0L27,26.066L14.628,13.693c-0.258-0.258-0.676-0.258-0.934,0c-0.258,0.259-0.258,0.677,0,0.935
			L26.066,27L13.694,39.373c-0.258,0.257-0.258,0.676,0,0.934s0.676,0.258,0.934,0L27,27.935l12.372,12.372
			c0.258,0.258,0.676,0.258,0.934,0s0.258-0.677,0-0.934L27.934,27z"/>
	</g>
</g>
</svg>
