<svg xmlns="http://www.w3.org/2000/svg" viewBox="887 420 360 360" xml:space="preserve">
	<path d="M1246.2,699c-1-3.1-7.5-7.6-19.4-13.5c-3.2-1.9-7.8-4.4-13.8-7.7s-11.4-6.2-16.2-9s-9.4-5.4-13.7-7.9 c-0.7-0.5-2.8-2-6.4-4.5c-3.6-2.5-6.6-4.3-9.1-5.5c-2.5-1.2-4.9-1.8-7.3-1.8c-3.4,0-7.6,2.4-12.8,7.3c-5.1,4.9-9.8,10.1-14.1,15.8 c-4.2,5.7-8.8,11-13.5,15.8c-4.8,4.9-8.7,7.3-11.8,7.3c-1.5,0-3.5-0.4-5.8-1.3c-2.3-0.9-4-1.6-5.2-2.2c-1.2-0.6-3.2-1.8-6.1-3.6 c-2.9-1.8-4.5-2.8-4.9-2.9c-23.4-13-43.4-27.8-60.1-44.5c-16.7-16.7-31.5-36.7-44.5-60.1c-0.2-0.4-1.1-2-3-4.9 c-1.8-2.9-3-4.9-3.6-6.1c-0.6-1.2-1.3-2.9-2.2-5.2c-0.8-2.3-1.3-4.2-1.3-5.8c0-3.1,2.4-7,7.3-11.8c4.8-4.8,10.1-9.3,15.8-13.5 s11-9,15.8-14.1c4.9-5.1,7.3-9.4,7.3-12.8c0-2.4-0.6-4.8-1.8-7.3c-1.2-2.5-3-5.5-5.5-9.1c-2.5-3.6-4-5.7-4.5-6.4 c-2.6-4.2-5.2-8.8-7.9-13.7c-2.7-4.9-5.7-10.3-9-16.2s-5.8-10.6-7.7-13.8c-6-11.9-10.5-18.4-13.5-19.4c-1.2-0.5-3-0.8-5.4-0.8 c-4.6,0-10.6,0.9-18,2.5c-7.4,1.7-13.2,3.5-17.5,5.4c-8.5,3.6-17.6,14-27.1,31.2c-8.7,16-13,31.9-13,47.5c0,4.6,0.3,9.1,0.9,13.4 c0.6,4.4,1.7,9.2,3.2,14.7c1.5,5.5,2.8,9.5,3.7,12.2c0.9,2.6,2.7,7.4,5.2,14.2c2.5,6.8,4.1,11,4.6,12.5c5.9,16.7,13,31.6,21.2,44.8 c13.5,21.8,31.8,44.4,55.1,67.6c23.3,23.3,45.8,41.6,67.6,55.1c13.1,8.2,28,15.2,44.8,21.2c1.5,0.5,5.7,2,12.5,4.6 c6.8,2.5,11.6,4.3,14.2,5.2c2.6,1,6.7,2.2,12.2,3.7c5.4,1.5,10.3,2.6,14.7,3.2c4.4,0.6,8.8,0.9,13.4,0.9c15.7,0,31.5-4.3,47.6-13 c17.2-9.5,27.6-18.6,31.2-27.1c1.9-4.3,3.7-10.1,5.4-17.5c1.7-7.4,2.5-13.4,2.5-18C1247,701.9,1246.8,700.1,1246.2,699z"/>
</svg>
