<svg xmlns="http://www.w3.org/2000/svg" viewBox="0 0 26.6 21.6" xml:space="preserve">
	<path d="M26.6,2.6c-1,0.4-2,0.7-3.1,0.9c1.1-0.7,2-1.7,2.4-3c-1.1,0.6-2.2,1.1-3.5,1.3c-1-1.1-2.4-1.7-4-1.7c-3,0-5.5,2.4-5.5,5.5 c0,0.4,0,0.8,0.1,1.2C8.6,6.5,4.5,4.3,1.9,1C1.4,1.8,1.1,2.7,1.1,3.7c0,1.9,1,3.6,2.4,4.5C2.6,8.2,1.8,8,1.1,7.6v0.1 c0,2.6,1.9,4.8,4.4,5.4C5,13.1,4.5,13.2,4,13.2c-0.4,0-0.7,0-1-0.1c0.7,2.2,2.7,3.7,5.1,3.8c-1.9,1.5-4.2,2.3-6.8,2.3 c-0.4,0-0.9,0-1.3-0.1c2.4,1.6,5.3,2.5,8.4,2.5c10,0,15.5-8.3,15.5-15.5l0-0.7C24.9,4.6,25.9,3.7,26.6,2.6z"/>
</svg>
