<?xml version="1.0" encoding="utf-8"?>
<!-- Generator: Adobe Illustrator 16.0.5, SVG Export Plug-In . SVG Version: 6.00 Build 0)  -->
<!DOCTYPE svg PUBLIC "-//W3C//DTD SVG 1.1//EN" "http://www.w3.org/Graphics/SVG/1.1/DTD/svg11.dtd">
<svg version="1.1" id="Layer_1" xmlns="http://www.w3.org/2000/svg" xmlns:xlink="http://www.w3.org/1999/xlink" x="0px" y="0px"
	 width="36px" height="72px" viewBox="0 0 36 72" enable-background="new 0 0 36 72" xml:space="preserve">
<g>
	<defs>
		<rect id="SVGID_1_" x="7.2" y="25.2" width="21.6" height="21.6"/>
	</defs>
	<clipPath id="SVGID_2_">
		<use xlink:href="#SVGID_1_"  overflow="visible"/>
	</clipPath>
	<path clip-path="url(#SVGID_2_)" fill-rule="evenodd" clip-rule="evenodd" fill="#231F20" d="M26.276,34.321h-1.877
		c0.137,0.531,0.217,1.086,0.217,1.66c0,3.664-2.971,6.635-6.633,6.635c-3.666,0-6.637-2.971-6.637-6.635
		c0-0.574,0.081-1.129,0.219-1.66H9.688v9.124c0,0.457,0.373,0.829,0.831,0.829h14.928c0.459,0,0.83-0.372,0.83-0.829V34.321z
		 M26.276,28.517c0-0.458-0.371-0.829-0.83-0.829h-2.487c-0.458,0-0.829,0.371-0.829,0.829v2.488c0,0.458,0.371,0.829,0.829,0.829
		h2.487c0.459,0,0.83-0.371,0.83-0.829V28.517z M17.983,31.834c-2.291,0-4.147,1.856-4.147,4.147c0,2.29,1.856,4.146,4.147,4.146
		c2.29,0,4.146-1.856,4.146-4.146C22.13,33.69,20.273,31.834,17.983,31.834 M26.276,46.763H9.688c-1.372,0-2.487-1.114-2.487-2.488
		V27.688c0-1.374,1.115-2.487,2.487-2.487h16.589c1.375,0,2.487,1.113,2.487,2.487v16.587
		C28.764,45.648,27.651,46.763,26.276,46.763"/>
</g>
</svg>
