<svg xmlns="http://www.w3.org/2000/svg" viewBox="0 0 359.4 359.4" xml:space="preserve">
	<path d="M317.9,152h-31.3c2.3,8.8,3.6,18.1,3.6,27.7c0,61.1-49.5,110.6-110.6,110.6c-61.1,0-110.6-49.5-110.6-110.6 c0-9.6,1.4-18.8,3.7-27.7H41.4v152.1c0,7.6,6.2,13.8,13.8,13.8h248.8c7.7,0,13.8-6.2,13.8-13.8L317.9,152L317.9,152z M317.9,55.3 c0-7.6-6.2-13.8-13.8-13.8h-41.4c-7.6,0-13.8,6.2-13.8,13.8v41.5c0,7.6,6.2,13.8,13.8,13.8h41.4c7.7,0,13.8-6.2,13.8-13.8V55.3z M179.7,110.5c-38.2,0-69.1,30.9-69.1,69.1c0,38.2,30.9,69.1,69.1,69.1c38.2,0,69.1-30.9,69.1-69.1 C248.8,141.5,217.9,110.5,179.7,110.5 M317.9,359.4H41.4C18.6,359.4,0,340.8,0,317.9V41.4C0,18.6,18.6,0,41.4,0h276.5 c22.9,0,41.5,18.6,41.5,41.4v276.5C359.4,340.8,340.8,359.4,317.9,359.4"/>
</svg>
