<?xml version="1.0" encoding="utf-8"?>
<!-- Generator: Adobe Illustrator 16.0.5, SVG Export Plug-In . SVG Version: 6.00 Build 0)  -->
<!DOCTYPE svg PUBLIC "-//W3C//DTD SVG 1.1//EN" "http://www.w3.org/Graphics/SVG/1.1/DTD/svg11.dtd">
<svg version="1.1" id="Layer_1" xmlns="http://www.w3.org/2000/svg" xmlns:xlink="http://www.w3.org/1999/xlink" x="0px" y="0px"
	 width="36px" height="72px" viewBox="0 0 36 72" enable-background="new 0 0 36 72" xml:space="preserve">
<path d="M28.754,41.937c-0.061-0.185-0.45-0.456-1.166-0.813c-0.194-0.112-0.47-0.266-0.828-0.46
	c-0.358-0.194-0.683-0.373-0.975-0.537s-0.565-0.322-0.821-0.475c-0.041-0.031-0.168-0.121-0.384-0.27
	c-0.215-0.148-0.396-0.258-0.545-0.329c-0.148-0.072-0.293-0.107-0.437-0.107c-0.205,0-0.459,0.145-0.767,0.437
	c-0.307,0.292-0.588,0.608-0.844,0.951c-0.255,0.343-0.526,0.66-0.812,0.951c-0.287,0.292-0.522,0.438-0.706,0.438
	c-0.092,0-0.208-0.025-0.346-0.076c-0.138-0.052-0.243-0.096-0.314-0.131s-0.194-0.106-0.368-0.215
	c-0.174-0.107-0.271-0.166-0.292-0.177c-1.401-0.777-2.603-1.667-3.605-2.669s-1.892-2.204-2.669-3.605
	c-0.01-0.021-0.069-0.118-0.177-0.292c-0.107-0.174-0.179-0.296-0.215-0.368c-0.036-0.071-0.079-0.176-0.13-0.313
	c-0.051-0.139-0.077-0.253-0.077-0.346c0-0.185,0.146-0.419,0.438-0.706c0.291-0.286,0.608-0.557,0.951-0.812
	s0.66-0.537,0.951-0.844c0.291-0.307,0.437-0.562,0.437-0.767c0-0.144-0.036-0.289-0.107-0.438c-0.072-0.148-0.182-0.33-0.33-0.545
	s-0.238-0.343-0.269-0.384c-0.153-0.255-0.312-0.528-0.476-0.82s-0.343-0.616-0.537-0.974c-0.194-0.358-0.348-0.635-0.46-0.829
	c-0.358-0.716-0.629-1.104-0.813-1.165c-0.072-0.031-0.179-0.047-0.322-0.047c-0.276,0-0.637,0.051-1.082,0.153
	c-0.444,0.103-0.795,0.21-1.05,0.322c-0.512,0.215-1.054,0.838-1.626,1.872C7.46,28.507,7.2,29.459,7.2,30.399
	c0,0.276,0.018,0.545,0.053,0.806c0.036,0.261,0.1,0.555,0.192,0.882c0.092,0.328,0.166,0.57,0.222,0.729
	c0.056,0.159,0.161,0.442,0.314,0.852c0.153,0.41,0.246,0.66,0.276,0.752c0.357,1.003,0.782,1.897,1.273,2.685
	c0.808,1.31,1.91,2.662,3.306,4.059c1.396,1.396,2.748,2.498,4.057,3.306c0.788,0.491,1.683,0.915,2.685,1.274
	c0.092,0.029,0.343,0.122,0.751,0.275c0.409,0.153,0.693,0.259,0.852,0.314c0.158,0.057,0.401,0.131,0.729,0.223
	c0.327,0.093,0.621,0.156,0.882,0.192c0.261,0.035,0.53,0.054,0.806,0.054c0.941,0,1.892-0.261,2.854-0.783
	c1.033-0.572,1.657-1.114,1.872-1.626c0.113-0.256,0.22-0.605,0.322-1.051c0.103-0.445,0.153-0.806,0.153-1.081
	C28.8,42.116,28.785,42.008,28.754,41.937z"/>
</svg>
