<svg xmlns="http://www.w3.org/2000/svg" viewBox="0 0 36 72" xml:space="preserve">
	<path d="M31.295,27.756c-0.98,0.433-2.029,0.728-3.133,0.858c1.127-0.675,1.99-1.745,2.398-3.016 c-1.057,0.625-2.223,1.079-3.465,1.324c-0.996-1.062-2.412-1.723-3.98-1.723c-3.016,0-5.457,2.442-5.457,5.453 c0,0.427,0.049,0.844,0.141,1.242c-4.531-0.228-8.551-2.399-11.24-5.698c-0.471,0.804-0.738,1.741-0.738,2.741 c0,1.893,0.965,3.562,2.426,4.539c-0.895-0.03-1.734-0.275-2.471-0.685v0.068c0,2.642,1.881,4.846,4.375,5.349 c-0.457,0.123-0.939,0.191-1.438,0.191c-0.352,0-0.691-0.036-1.025-0.101c0.693,2.168,2.707,3.745,5.094,3.789 c-1.865,1.462-4.219,2.331-6.773,2.331c-0.441,0-0.875-0.025-1.303-0.074c2.414,1.55,5.281,2.453,8.361,2.453 c10.033,0,15.52-8.311,15.52-15.519l-0.018-0.706C29.637,29.809,30.562,28.849,31.295,27.756z"/>
</svg>
